<svg width="120" height="40" viewBox="0 0 120 40" fill="none" xmlns="http://www.w3.org/2000/svg">
<g clip-path="url(#clip0_107_340)">
<path d="M110.303 7.92969e-06H9.70265C9.33595 7.92969e-06 8.97365 7.92975e-06 8.60792 0.00200793C8.30177 0.00400793 7.99806 0.00981793 7.68897 0.0147079C7.01748 0.0226097 6.34758 0.0816842 5.68507 0.191418C5.02349 0.303541 4.38264 0.514924 3.78419 0.818418C3.18647 1.12448 2.64031 1.52218 2.16554 1.99708C1.68827 2.47064 1.29043 3.01802 0.987319 3.61817C0.683369 4.21712 0.472609 4.85895 0.362319 5.52149C0.25098 6.18319 0.191067 6.85253 0.183119 7.52349C0.173839 7.83009 0.172859 8.13771 0.167969 8.44435V31.5586C0.172859 31.8691 0.173839 32.1699 0.183119 32.4805C0.19107 33.1514 0.250982 33.8207 0.362319 34.4824C0.472305 35.1453 0.683077 35.7875 0.987319 36.3867C1.29029 36.9849 1.68819 37.5301 2.16554 38.001C2.63851 38.478 3.18502 38.876 3.78419 39.1797C4.38264 39.484 5.02342 39.6967 5.68507 39.8105C6.34769 39.9194 7.01753 39.9785 7.68897 39.9873C7.99806 39.9941 8.30177 39.998 8.60792 39.998C8.97364 40 9.33597 40 9.70265 40H110.303C110.662 40 111.027 40 111.387 39.998C111.691 39.998 112.004 39.9941 112.309 39.9873C112.979 39.9789 113.647 39.9198 114.309 39.8105C114.972 39.6959 115.615 39.4833 116.217 39.1797C116.815 38.8758 117.361 38.4779 117.834 38.001C118.31 37.5282 118.709 36.9835 119.016 36.3867C119.318 35.7871 119.526 35.145 119.635 34.4824C119.746 33.8206 119.808 33.1515 119.82 32.4805C119.824 32.1699 119.824 31.8691 119.824 31.5586C119.832 31.1953 119.832 30.834 119.832 30.4648V9.53614C119.832 9.16993 119.832 8.80665 119.824 8.44435C119.824 8.13771 119.824 7.83009 119.82 7.52345C119.808 6.85243 119.746 6.18324 119.635 5.52145C119.526 4.85929 119.317 4.21751 119.016 3.61813C118.398 2.4152 117.42 1.43603 116.217 0.818328C115.615 0.515575 114.972 0.304248 114.309 0.191328C113.648 0.0811107 112.979 0.0220157 112.309 0.0145679C112.004 0.00968793 111.691 0.00382793 111.387 0.00187793C111.027 -0.00012207 110.662 -0.00012207 110.303 -0.00012207V7.92969e-06Z" fill="#A6A6A6"/>
<path d="M8.61277 39.125C8.30809 39.125 8.01077 39.1211 7.70848 39.1143C7.08227 39.1061 6.45751 39.0516 5.83934 38.9512C5.26293 38.8519 4.70455 38.6673 4.1826 38.4033C3.66545 38.1415 3.19376 37.7983 2.7856 37.3867C2.37155 36.98 2.02682 36.5082 1.76509 35.9902C1.50048 35.4688 1.31736 34.9099 1.22209 34.333C1.11922 33.7131 1.06356 33.0863 1.05559 32.458C1.04925 32.2471 1.04095 31.5449 1.04095 31.5449V8.44434C1.04095 8.44434 1.04979 7.75293 1.05564 7.5498C1.06327 6.92248 1.11861 6.29665 1.22117 5.67773C1.31661 5.09925 1.49988 4.53875 1.76463 4.01563C2.0254 3.49794 2.36821 3.02586 2.77977 2.61768C3.19088 2.20562 3.66408 1.8606 4.18211 1.59521C4.70286 1.33209 5.26019 1.14873 5.83543 1.05127C6.45563 0.949836 7.08256 0.894996 7.71094 0.88721L8.61326 0.875H111.382L112.295 0.8877C112.918 0.895099 113.539 0.94945 114.153 1.05029C114.734 1.14898 115.298 1.33362 115.824 1.59814C116.862 2.13299 117.706 2.97916 118.239 4.01807C118.5 4.53758 118.68 5.09351 118.774 5.66699C118.878 6.29099 118.936 6.92174 118.948 7.5542C118.951 7.8374 118.951 8.1416 118.951 8.44434C118.959 8.81934 118.959 9.17627 118.959 9.53613V30.4648C118.959 30.8281 118.959 31.1826 118.951 31.54C118.951 31.8652 118.951 32.1631 118.947 32.4697C118.936 33.0909 118.878 33.7104 118.776 34.3232C118.683 34.9043 118.501 35.4675 118.236 35.9932C117.973 36.5056 117.63 36.9733 117.221 37.3789C116.812 37.7927 116.34 38.1379 115.821 38.4014C115.296 38.6674 114.734 38.8527 114.153 38.9512C113.535 39.0522 112.91 39.1067 112.284 39.1143C111.991 39.1211 111.685 39.125 111.387 39.125L110.303 39.127L8.61277 39.125Z" fill="black"/>
<path d="M24.9368 20.3007C24.9476 19.466 25.1693 18.6477 25.5813 17.9217C25.9933 17.1957 26.5823 16.5858 27.2934 16.1486C26.8417 15.5035 26.2457 14.9725 25.5529 14.598C24.8601 14.2234 24.0894 14.0156 23.3022 13.991C21.623 13.8147 19.995 14.9958 19.1393 14.9958C18.2671 14.9958 16.9496 14.0085 15.5308 14.0376C14.6132 14.0673 13.7188 14.3341 12.9349 14.8122C12.1511 15.2903 11.5044 15.9632 11.0579 16.7655C9.12392 20.1139 10.5665 25.035 12.4191 27.7416C13.346 29.0669 14.4293 30.5474 15.8467 30.4949C17.2338 30.4374 17.7518 29.6104 19.4261 29.6104C21.0849 29.6104 21.5709 30.4949 23.0171 30.4615C24.5055 30.4374 25.4433 29.1303 26.3377 27.7924C27.0036 26.848 27.5161 25.8043 27.8561 24.6999C26.9914 24.3341 26.2535 23.722 25.7343 22.9397C25.2152 22.1574 24.9378 21.2396 24.9368 20.3007Z" fill="white"/>
<path d="M22.2052 12.2109C23.0168 11.2367 23.4166 9.98451 23.3198 8.72028C22.0799 8.8505 20.9347 9.44306 20.1122 10.3799C19.71 10.8376 19.402 11.37 19.2058 11.9468C19.0095 12.5235 18.9289 13.1333 18.9685 13.7413C19.5886 13.7477 20.2021 13.6132 20.7628 13.3482C21.3234 13.0831 21.8166 12.6942 22.2052 12.2109Z" fill="white"/>
<path d="M42.4702 27.1396H37.7368L36.6001 30.4961H34.5952L39.0786 18.0781H41.1616L45.645 30.4961H43.6059L42.4702 27.1396ZM38.227 25.5908H41.979L40.1294 20.1435H40.0777L38.227 25.5908Z" fill="white"/>
<path d="M55.3277 25.9697C55.3277 28.7832 53.8218 30.5908 51.5493 30.5908C50.9737 30.6209 50.4012 30.4883 49.8974 30.2082C49.3936 29.928 48.9789 29.5117 48.7007 29.0068H48.6577V33.4912H46.7993V21.4424H48.5982V22.9482H48.6324C48.9233 22.4458 49.345 22.0316 49.8527 21.7497C50.3603 21.4679 50.9348 21.3289 51.5152 21.3476C53.813 21.3477 55.3277 23.1641 55.3277 25.9697ZM53.4175 25.9697C53.4175 24.1367 52.4702 22.9316 51.0249 22.9316C49.605 22.9316 48.6499 24.1621 48.6499 25.9697C48.6499 27.7939 49.605 29.0156 51.0249 29.0156C52.4702 29.0156 53.4175 27.8193 53.4175 25.9697Z" fill="white"/>
<path d="M65.2924 25.9697C65.2924 28.7832 63.7866 30.5908 61.5141 30.5908C60.9385 30.6209 60.366 30.4883 59.8622 30.2082C59.3584 29.928 58.9437 29.5117 58.6655 29.0068H58.6225V33.4912H56.7641V21.4424H58.5629V22.9482H58.5971C58.8881 22.4458 59.3098 22.0316 59.8174 21.7497C60.325 21.4679 60.8996 21.3289 61.4799 21.3476C63.7778 21.3476 65.2924 23.164 65.2924 25.9697ZM63.3823 25.9697C63.3823 24.1367 62.435 22.9316 60.9897 22.9316C59.5698 22.9316 58.6147 24.1621 58.6147 25.9697C58.6147 27.7939 59.5698 29.0156 60.9897 29.0156C62.435 29.0156 63.3823 27.8193 63.3823 25.9697H63.3823Z" fill="white"/>
<path d="M71.8784 27.0361C72.0161 28.2676 73.2124 29.0761 74.8472 29.0761C76.4136 29.0761 77.5406 28.2675 77.5406 27.1572C77.5406 26.1933 76.8609 25.6162 75.2515 25.2207L73.6421 24.833C71.3619 24.2822 70.3033 23.2158 70.3033 21.4853C70.3033 19.3427 72.1704 17.871 74.8218 17.871C77.4458 17.871 79.2447 19.3427 79.3052 21.4853H77.4292C77.3169 20.246 76.2925 19.498 74.7954 19.498C73.2983 19.498 72.2739 20.2548 72.2739 21.3564C72.2739 22.2343 72.9282 22.7509 74.5288 23.1464L75.897 23.4823C78.4448 24.0849 79.5034 25.1083 79.5034 26.9247C79.5034 29.248 77.6528 30.703 74.7095 30.703C71.9556 30.703 70.0962 29.2821 69.9761 27.036L71.8784 27.0361Z" fill="white"/>
<path d="M83.5142 19.2998V21.4424H85.2358V22.9141H83.5142V27.9053C83.5142 28.6807 83.8589 29.042 84.6157 29.042C84.8201 29.0384 85.0242 29.0241 85.227 28.999V30.4619C84.8868 30.5255 84.5409 30.5543 84.1948 30.5478C82.3618 30.5478 81.647 29.8593 81.647 28.1035V22.9141H80.3306V21.4424H81.6469V19.2998H83.5142Z" fill="white"/>
<path d="M86.233 25.9697C86.233 23.1211 87.9107 21.3311 90.5269 21.3311C93.1519 21.3311 94.8218 23.1211 94.8218 25.9697C94.8218 28.8262 93.1607 30.6084 90.5269 30.6084C87.8941 30.6084 86.233 28.8262 86.233 25.9697ZM92.9283 25.9697C92.9283 24.0156 92.0328 22.8623 90.5269 22.8623C89.021 22.8623 88.1265 24.0244 88.1265 25.9697C88.1265 27.9316 89.021 29.0762 90.5269 29.0762C92.0328 29.0762 92.9282 27.9316 92.9282 25.9697H92.9283Z" fill="white"/>
<path d="M96.354 21.4424H98.1265V22.9834H98.1695C98.2894 22.5021 98.5713 22.0768 98.9679 21.7789C99.3645 21.481 99.8516 21.3287 100.347 21.3476C100.561 21.3469 100.775 21.3702 100.984 21.417V23.1553C100.714 23.0726 100.432 23.0347 100.149 23.043C99.8789 23.032 99.6098 23.0796 99.36 23.1825C99.1101 23.2854 98.8855 23.4411 98.7015 23.639C98.5175 23.8369 98.3786 24.0723 98.2941 24.3289C98.2097 24.5856 98.1818 24.8575 98.2124 25.126V30.4961H96.354L96.354 21.4424Z" fill="white"/>
<path d="M109.552 27.8369C109.302 29.4805 107.702 30.6084 105.654 30.6084C103.02 30.6084 101.385 28.8437 101.385 26.0127C101.385 23.1729 103.029 21.3311 105.576 21.3311C108.081 21.3311 109.656 23.0518 109.656 25.7969V26.4336H103.261V26.5459C103.232 26.8791 103.273 27.2148 103.384 27.5306C103.494 27.8464 103.67 28.1352 103.9 28.3778C104.131 28.6203 104.41 28.8111 104.72 28.9374C105.029 29.0637 105.363 29.1226 105.697 29.1103C106.136 29.1515 106.577 29.0498 106.953 28.8203C107.33 28.5909 107.623 28.246 107.788 27.8369L109.552 27.8369ZM103.27 25.1348H107.796C107.813 24.8352 107.768 24.5354 107.663 24.2541C107.558 23.9729 107.397 23.7164 107.188 23.5006C106.98 23.2849 106.729 23.1145 106.451 23.0003C106.174 22.8861 105.876 22.8305 105.576 22.8369C105.273 22.8351 104.973 22.8933 104.693 23.008C104.413 23.1227 104.158 23.2918 103.944 23.5054C103.73 23.7191 103.56 23.973 103.444 24.2527C103.328 24.5323 103.269 24.8321 103.27 25.1348V25.1348Z" fill="white"/>
<path d="M37.9941 8.73101C38.3838 8.70305 38.7747 8.76191 39.1388 8.90335C39.5029 9.04478 39.8311 9.26526 40.0997 9.54889C40.3683 9.83251 40.5706 10.1722 40.692 10.5435C40.8134 10.9148 40.8509 11.3083 40.8018 11.6959C40.8018 13.6021 39.7715 14.6979 37.9941 14.6979H35.8389V8.73101H37.9941ZM36.7656 13.854H37.8906C38.169 13.8707 38.4476 13.825 38.7062 13.7204C38.9647 13.6158 39.1967 13.4548 39.3852 13.2493C39.5737 13.0437 39.7139 12.7987 39.7958 12.5321C39.8777 12.2655 39.899 11.9839 39.8584 11.708C39.8961 11.4332 39.8725 11.1534 39.7894 10.8887C39.7063 10.6241 39.5657 10.3811 39.3776 10.1771C39.1896 9.97322 38.9587 9.81341 38.7016 9.70917C38.4445 9.60494 38.1676 9.55885 37.8906 9.57422H36.7656V13.854Z" fill="white"/>
<path d="M41.8486 12.4443C41.8203 12.1484 41.8542 11.8499 41.948 11.5678C42.0418 11.2857 42.1936 11.0264 42.3935 10.8064C42.5935 10.5864 42.8372 10.4107 43.109 10.2904C43.3809 10.1701 43.6749 10.108 43.9721 10.108C44.2694 10.108 44.5634 10.1701 44.8353 10.2904C45.1071 10.4107 45.3508 10.5864 45.5508 10.8064C45.7507 11.0264 45.9025 11.2857 45.9963 11.5678C46.0901 11.8499 46.124 12.1484 46.0957 12.4443C46.1245 12.7406 46.0911 13.0396 45.9975 13.3221C45.9039 13.6046 45.7522 13.8644 45.5522 14.0848C45.3522 14.3052 45.1083 14.4814 44.8362 14.6019C44.5641 14.7225 44.2698 14.7847 43.9721 14.7847C43.6745 14.7847 43.3802 14.7225 43.1081 14.6019C42.8359 14.4814 42.592 14.3052 42.3921 14.0848C42.1921 13.8644 42.0404 13.6046 41.9468 13.3221C41.8532 13.0396 41.8198 12.7406 41.8486 12.4443ZM45.1816 12.4443C45.1816 11.4683 44.7431 10.8975 43.9736 10.8975C43.2011 10.8975 42.7666 11.4683 42.7666 12.4444C42.7666 13.4282 43.2012 13.9946 43.9736 13.9946C44.7431 13.9946 45.1816 13.4243 45.1816 12.4443H45.1816Z" fill="white"/>
<path d="M51.7412 14.6978H50.8193L49.8887 11.3813H49.8184L48.8916 14.6978H47.9785L46.7373 10.1948H47.6387L48.4453 13.6308H48.5117L49.4375 10.1948H50.29L51.2158 13.6308H51.2861L52.0889 10.1948H52.9775L51.7412 14.6978Z" fill="white"/>
<path d="M54.0215 10.1948H54.877V10.9102H54.9434C55.056 10.6532 55.246 10.4379 55.4869 10.2941C55.7278 10.1503 56.0075 10.0852 56.2871 10.1079C56.5062 10.0914 56.7262 10.1245 56.9308 10.2046C57.1354 10.2847 57.3194 10.4098 57.469 10.5706C57.6187 10.7315 57.7303 10.9239 57.7955 11.1337C57.8607 11.3436 57.8779 11.5654 57.8457 11.7827V14.6977H56.957V12.0059C56.957 11.2822 56.6426 10.9224 55.9854 10.9224C55.8366 10.9154 55.6881 10.9408 55.55 10.9966C55.412 11.0524 55.2876 11.1375 55.1855 11.2458C55.0834 11.3542 55.0059 11.4834 54.9584 11.6245C54.9108 11.7657 54.8944 11.9154 54.9102 12.0635V14.6978H54.0215L54.0215 10.1948Z" fill="white"/>
<path d="M59.2617 8.43701H60.1504V14.6978H59.2617V8.43701Z" fill="white"/>
<path d="M61.3858 12.4443C61.3575 12.1484 61.3913 11.8498 61.4852 11.5677C61.5791 11.2857 61.7308 11.0263 61.9308 10.8063C62.1308 10.5863 62.3745 10.4106 62.6464 10.2903C62.9182 10.17 63.2122 10.1079 63.5095 10.1079C63.8068 10.1079 64.1008 10.17 64.3727 10.2903C64.6446 10.4106 64.8883 10.5863 65.0883 10.8063C65.2882 11.0263 65.44 11.2857 65.5339 11.5677C65.6277 11.8498 65.6616 12.1484 65.6333 12.4443C65.6621 12.7406 65.6286 13.0396 65.535 13.3221C65.4414 13.6046 65.2897 13.8644 65.0897 14.0848C64.8897 14.3052 64.6458 14.4814 64.3736 14.6019C64.1015 14.7224 63.8072 14.7847 63.5095 14.7847C63.2119 14.7847 62.9176 14.7224 62.6454 14.6019C62.3733 14.4814 62.1294 14.3052 61.9294 14.0848C61.7294 13.8644 61.5777 13.6046 61.484 13.3221C61.3904 13.0396 61.3569 12.7406 61.3858 12.4443ZM64.7188 12.4443C64.7188 11.4683 64.2803 10.8975 63.5108 10.8975C62.7383 10.8975 62.3038 11.4683 62.3038 12.4444C62.3038 13.4282 62.7383 13.9946 63.5108 13.9946C64.2803 13.9946 64.7188 13.4243 64.7188 12.4443H64.7188Z" fill="white"/>
<path d="M66.5688 13.4243C66.5688 12.6138 67.1724 12.1465 68.2436 12.0801L69.4634 12.0098V11.6211C69.4634 11.1455 69.1489 10.877 68.5415 10.877C68.0454 10.877 67.7017 11.0591 67.603 11.3775H66.7427C66.8335 10.604 67.561 10.1079 68.5825 10.1079C69.7114 10.1079 70.3481 10.6699 70.3481 11.6211V14.6978H69.4927V14.065H69.4224C69.2796 14.292 69.0792 14.477 68.8416 14.6012C68.604 14.7254 68.3377 14.7844 68.0698 14.772C67.8808 14.7916 67.6897 14.7715 67.509 14.7128C67.3282 14.6541 67.1618 14.5581 67.0203 14.4312C66.8789 14.3042 66.7657 14.149 66.6879 13.9756C66.6102 13.8022 66.5696 13.6144 66.5688 13.4243ZM69.4634 13.0396V12.6631L68.3638 12.7334C67.7436 12.7749 67.4624 12.9859 67.4624 13.3828C67.4624 13.7881 67.814 14.0239 68.2974 14.0239C68.439 14.0383 68.5821 14.024 68.7181 13.9819C68.8541 13.9398 68.9803 13.8708 69.0891 13.7789C69.1979 13.6871 69.2871 13.5743 69.3514 13.4473C69.4157 13.3203 69.4538 13.1816 69.4634 13.0396Z" fill="white"/>
<path d="M71.5161 12.4444C71.5161 11.0215 72.2476 10.1201 73.3853 10.1201C73.6667 10.1072 73.946 10.1746 74.1905 10.3145C74.435 10.4544 74.6347 10.661 74.7661 10.9101H74.8325V8.43701H75.7212V14.6978H74.8696V13.9863H74.7993C74.6577 14.2338 74.4511 14.4378 74.2019 14.5763C73.9526 14.7148 73.6702 14.7825 73.3853 14.772C72.2398 14.772 71.5161 13.8706 71.5161 12.4444ZM72.4341 12.4444C72.4341 13.3994 72.8843 13.9741 73.6372 13.9741C74.3862 13.9741 74.8492 13.3911 74.8492 12.4483C74.8492 11.5098 74.3814 10.9185 73.6372 10.9185C72.8892 10.9185 72.4341 11.4971 72.4341 12.4444H72.4341Z" fill="white"/>
<path d="M79.3979 12.4443C79.3696 12.1484 79.4035 11.8499 79.4973 11.5678C79.5911 11.2857 79.7429 11.0264 79.9428 10.8064C80.1428 10.5864 80.3865 10.4107 80.6583 10.2904C80.9302 10.1701 81.2242 10.108 81.5215 10.108C81.8187 10.108 82.1127 10.1701 82.3846 10.2904C82.6564 10.4107 82.9001 10.5864 83.1001 10.8064C83.3 11.0264 83.4518 11.2857 83.5456 11.5678C83.6394 11.8499 83.6733 12.1484 83.645 12.4443C83.6738 12.7406 83.6404 13.0396 83.5468 13.3221C83.4532 13.6046 83.3015 13.8644 83.1015 14.0848C82.9016 14.3052 82.6577 14.4814 82.3855 14.6019C82.1134 14.7225 81.8191 14.7847 81.5215 14.7847C81.2238 14.7847 80.9295 14.7225 80.6574 14.6019C80.3853 14.4814 80.1414 14.3052 79.9414 14.0848C79.7414 13.8644 79.5897 13.6046 79.4961 13.3221C79.4025 13.0396 79.3691 12.7406 79.3979 12.4443ZM82.7309 12.4443C82.7309 11.4683 82.2924 10.8975 81.5229 10.8975C80.7505 10.8975 80.3159 11.4683 80.3159 12.4444C80.3159 13.4282 80.7505 13.9946 81.5229 13.9946C82.2925 13.9946 82.7309 13.4243 82.7309 12.4443Z" fill="white"/>
<path d="M84.8374 10.1948H85.6929V10.9102H85.7593C85.8719 10.6532 86.0619 10.4379 86.3028 10.2941C86.5437 10.1503 86.8234 10.0852 87.103 10.1079C87.3221 10.0914 87.5421 10.1245 87.7467 10.2046C87.9513 10.2847 88.1353 10.4098 88.285 10.5706C88.4346 10.7315 88.5462 10.9239 88.6114 11.1337C88.6766 11.3436 88.6938 11.5654 88.6616 11.7827V14.6977H87.773V12.0059C87.773 11.2822 87.4585 10.9224 86.8013 10.9224C86.6525 10.9154 86.504 10.9408 86.366 10.9966C86.2279 11.0524 86.1036 11.1375 86.0014 11.2458C85.8993 11.3542 85.8218 11.4834 85.7743 11.6245C85.7268 11.7657 85.7103 11.9154 85.7261 12.0635V14.6978H84.8374V10.1948Z" fill="white"/>
<path d="M93.6831 9.07373V10.2153H94.6587V10.9639H93.6831V13.2793C93.6831 13.751 93.8774 13.9575 94.3198 13.9575C94.4331 13.9572 94.5462 13.9503 94.6587 13.937V14.6772C94.4991 14.7058 94.3374 14.721 94.1753 14.7226C93.187 14.7226 92.7935 14.375 92.7935 13.5068V10.9638H92.0786V10.2153H92.7935V9.07373H93.6831Z" fill="white"/>
<path d="M95.8726 8.43701H96.7534V10.9185H96.8237C96.9419 10.6591 97.1371 10.4425 97.3828 10.2982C97.6285 10.1539 97.9127 10.0888 98.1967 10.1118C98.4147 10.1 98.6326 10.1364 98.8349 10.2184C99.0371 10.3004 99.2188 10.4261 99.3669 10.5864C99.5151 10.7468 99.626 10.9378 99.6917 11.146C99.7575 11.3541 99.7766 11.5742 99.7475 11.7905V14.6978H98.8579V12.0098C98.8579 11.2905 98.5229 10.9263 97.8951 10.9263C97.7423 10.9137 97.5887 10.9347 97.4449 10.9878C97.3011 11.0408 97.1707 11.1247 97.0627 11.2334C96.9547 11.3421 96.8718 11.4732 96.8197 11.6173C96.7676 11.7614 96.7477 11.9152 96.7613 12.0679V14.6977H95.8726L95.8726 8.43701Z" fill="white"/>
<path d="M104.929 13.4819C104.808 13.8935 104.547 14.2495 104.19 14.4876C103.833 14.7258 103.404 14.8309 102.978 14.7847C102.681 14.7925 102.387 14.7357 102.114 14.6182C101.842 14.5006 101.598 14.3252 101.4 14.1041C101.202 13.8829 101.055 13.6214 100.968 13.3376C100.881 13.0537 100.857 12.7544 100.898 12.4605C100.858 12.1656 100.883 11.8656 100.969 11.581C101.056 11.2963 101.202 11.0335 101.399 10.8105C101.596 10.5874 101.839 10.4092 102.11 10.288C102.382 10.1668 102.677 10.1054 102.974 10.1079C104.227 10.1079 104.983 10.9639 104.983 12.3779V12.688H101.803V12.7378C101.789 12.9031 101.81 13.0694 101.864 13.2261C101.918 13.3829 102.005 13.5266 102.117 13.6481C102.23 13.7695 102.367 13.866 102.52 13.9314C102.672 13.9968 102.837 14.0297 103.002 14.0278C103.215 14.0533 103.43 14.0151 103.621 13.9178C103.812 13.8206 103.969 13.6689 104.074 13.4819L104.929 13.4819ZM101.803 12.0308H104.078C104.089 11.8796 104.068 11.7278 104.017 11.5851C103.966 11.4424 103.886 11.3119 103.782 11.2021C103.677 11.0922 103.551 11.0054 103.411 10.9472C103.271 10.8891 103.121 10.8608 102.969 10.8643C102.815 10.8623 102.663 10.8912 102.521 10.9491C102.378 11.0071 102.249 11.0929 102.14 11.2017C102.032 11.3104 101.946 11.4397 101.888 11.5821C101.83 11.7245 101.801 11.8771 101.803 12.0308H101.803Z" fill="white"/>
</g>
<defs>
<clipPath id="clip0_107_340">
<rect width="119.664" height="40" fill="white" transform="translate(0.167969)"/>
</clipPath>
</defs>
</svg>
