<svg width="2658" height="2658" viewBox="0 0 2658 2658" fill="none" xmlns="http://www.w3.org/2000/svg">
<g opacity="0.5">
<path d="M906.308 422.618L1117 843.004C1163.99 936.774 1305.26 904.16 1306.39 799.28L1311.47 329.078L1332.96 798.815C1337.75 903.593 1480.07 931.257 1523.77 835.904L1719.66 408.421L1548.23 846.287C1509.99 943.956 1628.75 1027.11 1707.45 957.777L2060.28 646.928L1725.58 977.212C1650.92 1050.88 1725.59 1175.16 1825.69 1143.83L2274.44 1003.36L1834.34 1168.95C1736.17 1205.89 1753.84 1349.79 1858.03 1361.88L2325.12 1416.08L1855.71 1388.35C1751.01 1382.17 1708.62 1520.81 1798.88 1574.23L2203.55 1813.74L1786 1597.48C1692.86 1549.24 1597.74 1658.66 1658.47 1744.17L1930.74 2127.56L1637.25 1760.17C1571.79 1678.22 1440.39 1739.49 1461.09 1842.31L1553.88 2303.3L1435.19 1848.29C1408.72 1746.8 1263.76 1749.33 1240.85 1851.68L1138.12 2310.55L1214.76 1846.61C1231.86 1743.13 1098.4 1686.48 1035.84 1770.66L755.35 2148.08L1014.07 1755.42C1071.78 1667.84 972.902 1561.81 881.506 1613.26L471.759 1843.96L867.819 1590.49C956.162 1533.95 908.961 1396.86 804.536 1406.7L336.38 1450.8L801.298 1380.32C905 1364.6 917.636 1220.18 818.239 1186.69L372.621 1036.55L826.008 1161.27C927.138 1189.09 997.427 1062.29 920.244 991.269L574.216 672.867L937.678 971.214C1018.75 1037.76 1134.54 950.51 1092.91 854.235L906.308 422.618Z" fill="#0BACDA"/>
<path d="M1088.49 993.008C1103.48 932.672 1170.29 901.519 1226.15 928.821C1260.85 945.784 1302.29 940.695 1331.86 915.84C1379.45 875.837 1451.81 889.902 1480.95 944.821C1499.06 978.943 1535.57 999.185 1574.1 996.457C1636.12 992.067 1686.39 1045.98 1677.69 1107.54C1672.28 1145.78 1689.92 1183.62 1722.7 1204.07C1775.45 1236.97 1784.44 1310.13 1741.21 1354.81C1714.35 1382.58 1706.39 1423.56 1720.89 1459.37C1744.23 1516.99 1708.49 1581.46 1647.25 1592.2C1609.21 1598.88 1578.67 1627.36 1569.36 1664.84C1554.37 1725.18 1487.56 1756.33 1431.71 1729.03C1397 1712.07 1355.56 1717.16 1325.99 1742.01C1278.4 1782.02 1206.04 1767.95 1176.9 1713.03C1158.8 1678.91 1122.28 1658.67 1083.75 1661.39C1021.73 1665.79 971.459 1611.87 980.164 1550.32C985.573 1512.07 967.928 1474.23 935.152 1453.79C882.4 1420.89 873.416 1347.72 916.642 1303.04C943.499 1275.27 951.466 1234.29 936.965 1198.49C913.626 1140.86 949.363 1076.39 1010.6 1065.65C1048.65 1058.97 1079.18 1030.5 1088.49 993.008Z" fill="#03232B"/>
<path d="M1088.49 993.008C1103.48 932.672 1170.29 901.519 1226.15 928.821C1260.85 945.784 1302.29 940.695 1331.86 915.84C1379.45 875.837 1451.81 889.902 1480.95 944.821C1499.06 978.943 1535.57 999.185 1574.1 996.457C1636.12 992.067 1686.39 1045.98 1677.69 1107.54C1672.28 1145.78 1689.92 1183.62 1722.7 1204.07C1775.45 1236.97 1784.44 1310.13 1741.21 1354.81C1714.35 1382.58 1706.39 1423.56 1720.89 1459.37C1744.23 1516.99 1708.49 1581.46 1647.25 1592.2C1609.21 1598.88 1578.67 1627.36 1569.36 1664.84C1554.37 1725.18 1487.56 1756.33 1431.71 1729.03C1397 1712.07 1355.56 1717.16 1325.99 1742.01C1278.4 1782.02 1206.04 1767.95 1176.9 1713.03C1158.8 1678.91 1122.28 1658.67 1083.75 1661.39C1021.73 1665.79 971.459 1611.87 980.164 1550.32C985.573 1512.07 967.928 1474.23 935.152 1453.79C882.4 1420.89 873.416 1347.72 916.642 1303.04C943.499 1275.27 951.466 1234.29 936.965 1198.49C913.626 1140.86 949.363 1076.39 1010.6 1065.65C1048.65 1058.97 1079.18 1030.5 1088.49 993.008Z" fill="url(#paint0_linear_526_36)" style="mix-blend-mode:overlay"/>
</g>
<defs>
<linearGradient id="paint0_linear_526_36" x1="664.463" y1="1087.08" x2="1993.39" y2="1570.77" gradientUnits="userSpaceOnUse">
<stop stop-color="white"/>
<stop offset="1" stop-opacity="0"/>
</linearGradient>
</defs>
</svg>
