<svg width="39" height="39" viewBox="0 0 39 39" fill="none" xmlns="http://www.w3.org/2000/svg">
<path d="M0.800781 19.6602C0.800781 22.0169 1.21745 24.25 2.05078 26.3594C2.88411 28.4557 4.02995 30.3307 5.48828 31.9844C6.94661 33.638 8.61328 34.9727 10.4883 35.9883C10.8398 36.1966 11.1654 36.2747 11.4648 36.2227C11.7773 36.1836 12.0378 36.0664 12.2461 35.8711C12.4544 35.6758 12.5911 35.4349 12.6562 35.1484C12.7214 34.875 12.6823 34.5885 12.5391 34.2891C12.4089 34.0026 12.1484 33.7487 11.7578 33.5273C10.1693 32.6549 8.76302 31.5221 7.53906 30.1289C6.32812 28.7227 5.3776 27.1341 4.6875 25.3633C3.9974 23.5794 3.65234 21.6784 3.65234 19.6602C3.65234 17.4727 4.0625 15.4219 4.88281 13.5078C5.70312 11.5807 6.83594 9.89453 8.28125 8.44922C9.72656 6.99089 11.4062 5.85156 13.3203 5.03125C15.2344 4.21094 17.2917 3.80078 19.4922 3.80078C21.7057 3.80078 23.7695 4.21094 25.6836 5.03125C27.6107 5.85156 29.2969 6.99089 30.7422 8.44922C32.2005 9.89453 33.3333 11.5807 34.1406 13.5078C34.9609 15.4219 35.3711 17.4727 35.3711 19.6602C35.3711 20.1549 35.5273 20.5326 35.8398 20.793C36.1654 21.0404 36.5104 21.1641 36.875 21.1641C37.2135 21.1641 37.5195 21.0404 37.793 20.793C38.0794 20.5326 38.2227 20.1549 38.2227 19.6602C38.2227 17.1081 37.7279 14.7057 36.7383 12.4531C35.7617 10.1875 34.4076 8.19531 32.6758 6.47656C30.957 4.74479 28.9714 3.39062 26.7188 2.41406C24.4661 1.4375 22.0573 0.949219 19.4922 0.949219C16.9401 0.949219 14.5378 1.4375 12.2852 2.41406C10.0326 3.39062 8.04036 4.74479 6.30859 6.47656C4.58984 8.19531 3.24219 10.1875 2.26562 12.4531C1.28906 14.7057 0.800781 17.1081 0.800781 19.6602ZM8.20312 19.6602C8.20312 21.0273 8.43099 22.3164 8.88672 23.5273C9.34245 24.7253 9.95443 25.793 10.7227 26.7305C11.4909 27.668 12.3438 28.4232 13.2812 28.9961C13.6979 29.2956 14.082 29.4062 14.4336 29.3281C14.7982 29.237 15.0846 29.0482 15.293 28.7617C15.5013 28.4622 15.5859 28.1367 15.5469 27.7852C15.5208 27.4336 15.3255 27.1406 14.9609 26.9062C13.763 26.151 12.793 25.1419 12.0508 23.8789C11.3216 22.6029 10.957 21.1966 10.957 19.6602C10.957 18.0846 11.3411 16.6523 12.1094 15.3633C12.8776 14.0612 13.9062 13.0326 15.1953 12.2773C16.4844 11.5091 17.9232 11.125 19.5117 11.125C21.0872 11.125 22.5065 11.5091 23.7695 12.2773C25.0456 13.0326 26.0677 14.0547 26.8359 15.3438C27.6042 16.6328 28.0143 18.0716 28.0664 19.6602C28.0794 20.0378 28.2161 20.3633 28.4766 20.6367C28.737 20.9102 29.056 21.0469 29.4336 21.0469C29.8242 21.0469 30.1497 20.9102 30.4102 20.6367C30.6836 20.3633 30.8203 20.0378 30.8203 19.6602C30.8203 18.1107 30.5273 16.6523 29.9414 15.2852C29.3555 13.918 28.5352 12.7201 27.4805 11.6914C26.4388 10.6497 25.2344 9.83594 23.8672 9.25C22.5 8.65104 21.0482 8.35156 19.5117 8.35156C17.9622 8.35156 16.5039 8.65104 15.1367 9.25C13.7826 9.83594 12.5846 10.6497 11.543 11.6914C10.5013 12.7201 9.68099 13.918 9.08203 15.2852C8.49609 16.6523 8.20312 18.1107 8.20312 19.6602ZM19.2773 31.8281C19.2773 32.2318 19.4466 32.4857 19.7852 32.5898C20.1367 32.694 20.4362 32.6224 20.6836 32.375L23.9258 29.0938L27.5781 38.1172C27.6432 38.3125 27.7669 38.4492 27.9492 38.5273C28.1445 38.6055 28.3268 38.612 28.4961 38.5469L30.4883 37.7656C30.6576 37.6745 30.7747 37.5378 30.8398 37.3555C30.9049 37.1732 30.8984 36.9844 30.8203 36.7891L26.9922 27.9219L31.6211 27.8047C31.9727 27.7917 32.2135 27.6419 32.3438 27.3555C32.487 27.056 32.4349 26.763 32.1875 26.4766L20.7031 14.5234C20.4557 14.276 20.1758 14.2109 19.8633 14.3281C19.5638 14.4323 19.4076 14.6797 19.3945 15.0703L19.2773 31.8281Z" fill="white"/>
</svg>
