<svg width="32" height="32" viewBox="0 0 32 32" fill="none" xmlns="http://www.w3.org/2000/svg">
<rect width="32" height="32" rx="6" fill="white"/>
<path d="M23.8801 14.4617C23.9826 15.0108 24.0384 15.585 24.0384 16.1842C24.0384 20.8708 20.9018 24.2033 16.1643 24.2033C15.0869 24.2037 14.02 23.9917 13.0246 23.5796C12.0292 23.1674 11.1247 22.5632 10.3629 21.8014C9.60109 21.0395 8.99685 20.1351 8.58471 19.1397C8.17257 18.1442 7.96061 17.0774 7.96094 16C7.96061 14.9226 8.17257 13.8557 8.58471 12.8603C8.99685 11.8649 9.60109 10.9604 10.3629 10.1986C11.1247 9.43681 12.0292 8.83257 13.0246 8.42043C14.02 8.00829 15.0869 7.79633 16.1643 7.79666C18.3793 7.79666 20.2301 8.61166 21.6501 9.935L19.3376 12.2475V12.2417C18.4768 11.4217 17.3843 11.0008 16.1643 11.0008C13.4576 11.0008 11.2576 13.2875 11.2576 15.995C11.2576 18.7017 13.4576 20.9933 16.1643 20.9933C18.6201 20.9933 20.2918 19.5892 20.6351 17.6608H16.1643V14.4617H23.8809H23.8801Z" fill="#010F13"/>
</svg>
