<svg width="137" height="40" viewBox="0 0 137 40" fill="none" xmlns="http://www.w3.org/2000/svg">
<g clip-path="url(#clip0_107_410)">
<path fill-rule="evenodd" clip-rule="evenodd" d="M131.793 40H5.87092C3.09378 40 0.832031 37.7456 0.832031 35V5C0.832031 2.24439 3.09378 0 5.87092 0H131.793C134.568 0 136.832 2.24439 136.832 5V35C136.832 37.7456 134.568 40 131.793 40Z" fill="black"/>
<path fill-rule="evenodd" clip-rule="evenodd" d="M131.793 0.800499C134.122 0.800499 136.029 2.68828 136.029 5V35C136.029 37.3117 134.135 39.1995 131.793 39.1995H5.87092C3.54162 39.1995 1.63515 37.3117 1.63515 35V5C1.63515 2.68828 3.52911 0.800499 5.87092 0.800499H131.793ZM131.793 0H5.87092C3.09378 0 0.832031 2.25436 0.832031 5V35C0.832031 37.7556 3.09378 40 5.87092 40H131.793C134.568 40 136.832 37.7556 136.832 35V5C136.832 2.25436 134.568 0 131.793 0Z" fill="#A6A6A6"/>
<path d="M72.4774 13.2319C71.5692 13.2319 70.8036 12.9152 70.1981 12.2918C69.5976 11.6858 69.2624 10.8504 69.2774 9.99751C69.2774 9.08729 69.5876 8.31672 70.1981 7.70574C70.8011 7.0823 71.5667 6.76559 72.4749 6.76559C73.373 6.76559 74.1386 7.0823 74.7541 7.70574C75.3646 8.33667 75.6748 9.10724 75.6748 9.99751C75.6648 10.9102 75.3546 11.6808 74.7541 12.2893C74.1512 12.9177 73.3856 13.2319 72.4774 13.2319ZM45.454 13.2319C44.5658 13.2319 43.7952 12.9202 43.1647 12.3042C42.5392 11.6908 42.2215 10.9152 42.2215 10C42.2215 9.0848 42.5392 8.30924 43.1647 7.69577C43.7827 7.07981 44.5533 6.76809 45.454 6.76809C45.8943 6.76809 46.3222 6.85537 46.7325 7.03243C47.1353 7.2045 47.463 7.43891 47.7057 7.72569L47.7658 7.79801L47.0878 8.46136L47.0177 8.37906C46.6349 7.9252 46.122 7.70325 45.444 7.70325C44.8385 7.70325 44.3106 7.91771 43.8753 8.34165C43.4374 8.76809 43.2148 9.32669 43.2148 10.0025C43.2148 10.6783 43.4374 11.2369 43.8753 11.6634C44.3106 12.0873 44.8385 12.3018 45.444 12.3018C46.0895 12.3018 46.6324 12.0873 47.0552 11.6634C47.3054 11.414 47.4605 11.0648 47.5156 10.6235H45.3414V9.69078H48.4488L48.4613 9.77557C48.4838 9.93268 48.5063 10.0948 48.5063 10.2444C48.5063 11.1047 48.2461 11.8005 47.7307 12.3142C47.1453 12.9227 46.3797 13.2319 45.454 13.2319ZM81.3842 13.0998H80.426L77.4912 8.41896L77.5162 9.26185V13.0973H76.558V6.90026H77.6513L77.6814 6.94764L80.441 11.3566L80.416 10.5162V6.90026H81.3842V13.0998ZM65.2768 13.0998H64.306V7.83293H62.6222V6.90026H66.9581V7.83293H65.2743V13.0998H65.2768ZM61.8316 13.0998H60.8634V6.90026H61.8316V13.0998ZM56.3899 13.0998H55.4217V7.83293H53.7379V6.90026H58.0737V7.83293H56.3899V13.0998ZM53.1249 13.0898H49.412V6.90026H53.1249V7.83293H50.3828V9.53367H52.8572V10.4564H50.3828V12.1571H53.1249V13.0898ZM70.9086 11.6509C71.3415 12.0823 71.8669 12.2993 72.4774 12.2993C73.1053 12.2993 73.6182 12.0873 74.0461 11.6509C74.4714 11.2269 74.6866 10.6708 74.6866 10C74.6866 9.32919 74.4714 8.77058 74.0486 8.34914C73.6157 7.91771 73.0878 7.70076 72.4799 7.70076C71.8519 7.70076 71.339 7.91273 70.9137 8.34914C70.4883 8.77308 70.2732 9.32919 70.2732 10C70.2732 10.6708 70.4858 11.2294 70.9086 11.6509Z" fill="white"/>
<path fill-rule="evenodd" clip-rule="evenodd" d="M69.1873 21.7556C66.823 21.7556 64.9065 23.5436 64.9065 26.01C64.9065 28.4539 66.8355 30.2643 69.1873 30.2643C71.5517 30.2643 73.4681 28.4638 73.4681 26.01C73.4681 23.5436 71.5517 21.7556 69.1873 21.7556ZM69.1873 28.5785C67.8938 28.5785 66.7805 27.5112 66.7805 26C66.7805 24.4663 67.8963 23.4214 69.1873 23.4214C70.4808 23.4214 71.5942 24.4663 71.5942 26C71.5967 27.5212 70.4808 28.5785 69.1873 28.5785ZM59.8476 21.7556C57.4833 21.7556 55.5668 23.5436 55.5668 26.01C55.5668 28.4539 57.4958 30.2643 59.8476 30.2643C62.212 30.2643 64.1284 28.4638 64.1284 26.01C64.1284 23.5436 62.2095 21.7556 59.8476 21.7556ZM59.8476 28.5785C58.5541 28.5785 57.4408 27.5112 57.4408 26C57.4408 24.4663 58.5566 23.4214 59.8476 23.4214C61.1411 23.4214 62.2545 24.4663 62.2545 26C62.2545 27.5212 61.1411 28.5785 59.8476 28.5785ZM48.734 23.0549V24.8554H53.0699C52.9373 25.8653 52.602 26.611 52.0891 27.1222C51.4536 27.7556 50.4729 28.4439 48.7441 28.4439C46.0795 28.4439 43.9954 26.2992 43.9954 23.6434C43.9954 20.9875 46.0795 18.8429 48.7441 18.8429C50.1827 18.8429 51.231 19.409 52.0091 20.1322L53.2901 18.8554C52.2092 17.8229 50.7706 17.0324 48.7541 17.0324C45.0987 17.0324 42.0314 20 42.0314 23.6334C42.0314 27.2768 45.0962 30.2344 48.7541 30.2344C50.7281 30.2344 52.2092 29.591 53.3801 28.379C54.5736 27.1895 54.9514 25.5112 54.9514 24.1571C54.9514 23.7357 54.9188 23.3566 54.8513 23.0349H48.7315C48.734 23.0324 48.734 23.0549 48.734 23.0549ZM94.1916 24.4564C93.8339 23.5012 92.753 21.7456 90.5363 21.7456C88.3396 21.7456 86.5132 23.4688 86.5132 26C86.5132 28.389 88.3196 30.2544 90.749 30.2544C92.7005 30.2544 93.8364 29.0648 94.3042 28.3666L92.8556 27.399C92.3752 28.1097 91.7072 28.5761 90.759 28.5761C89.8008 28.5761 89.1302 28.1421 88.6849 27.2868L94.3918 24.9302C94.3918 24.9327 94.1916 24.4564 94.1916 24.4564ZM88.3722 25.8778C88.3271 24.2344 89.6531 23.399 90.6014 23.399C91.3495 23.399 91.9724 23.7656 92.1851 24.2992L88.3722 25.8778ZM83.7361 30H85.61V17.5012H83.7361V30ZM80.6587 22.7007H80.5911C80.1683 22.1995 79.3652 21.7456 78.3394 21.7456C76.2103 21.7456 74.2487 23.6135 74.2487 26.0125C74.2487 28.4015 76.2003 30.2469 78.3394 30.2469C79.3527 30.2469 80.1683 29.7905 80.5911 29.2793H80.6587V29.8903C80.6587 31.5137 79.788 32.389 78.3844 32.389C77.2361 32.389 76.523 31.5661 76.2328 30.8778L74.604 31.5561C75.0719 32.6783 76.3204 34.0673 78.3819 34.0673C80.5786 34.0673 82.4401 32.778 82.4401 29.6334V22H80.6687V22.7007C80.6712 22.7007 80.6587 22.7007 80.6587 22.7007ZM78.507 28.5785C77.2135 28.5785 76.1327 27.5012 76.1327 26.0125C76.1327 24.5112 77.2135 23.4239 78.507 23.4239C79.788 23.4239 80.7813 24.5237 80.7813 26.0125C80.7938 27.5012 79.7905 28.5785 78.507 28.5785ZM102.966 17.5012H98.485V30H100.359V25.2668H102.968C105.043 25.2668 107.082 23.7681 107.082 21.389C107.082 19.01 105.05 17.5012 102.966 17.5012ZM103.021 23.5212H100.356V19.2319H103.021C104.425 19.2319 105.218 20.3865 105.218 21.3765C105.218 22.3566 104.415 23.5212 103.021 23.5212ZM114.592 21.7332C113.231 21.7332 111.828 22.3342 111.247 23.6434L112.909 24.3317C113.266 23.6434 113.922 23.409 114.615 23.409C115.586 23.409 116.566 23.9875 116.589 25.0199V25.1521C116.254 24.9626 115.518 24.6733 114.637 24.6733C112.844 24.6733 111.025 25.6509 111.025 27.4838C111.025 29.1621 112.496 30.2394 114.135 30.2394C115.393 30.2394 116.086 29.6733 116.519 29.0174H116.586V29.985H118.393V25.197C118.393 22.9676 116.732 21.7332 114.592 21.7332ZM114.357 28.5785C113.744 28.5785 112.886 28.2793 112.886 27.5112C112.886 26.5436 113.957 26.177 114.87 26.177C115.696 26.177 116.086 26.3541 116.576 26.5985C116.441 27.7207 115.491 28.5686 114.357 28.5785ZM124.983 22L122.831 27.4214H122.764L120.534 22H118.518L121.863 29.5785L119.957 33.7905H121.908L127.055 22H124.983ZM108.115 30H109.989V17.5012H108.115V30Z" fill="white"/>
<path fill-rule="evenodd" clip-rule="evenodd" d="M11.3001 7.53367C11.0099 7.84539 10.8423 8.3217 10.8423 8.94514V31.0574C10.8423 31.6808 11.0099 32.1571 11.3101 32.4564L11.3877 32.5237L23.8173 20.1347V19.8579L11.3777 7.46634L11.3001 7.53367Z" fill="url(#paint0_linear_107_410)"/>
<path fill-rule="evenodd" clip-rule="evenodd" d="M27.953 24.2768L23.8073 20.1447V19.8554L27.953 15.7232L28.043 15.7781L32.9468 18.5561C34.3504 19.3442 34.3504 20.6459 32.9468 21.4439L28.043 24.222L27.953 24.2768Z" fill="url(#paint1_linear_107_410)"/>
<path fill-rule="evenodd" clip-rule="evenodd" d="M28.043 24.2219L23.8073 20L11.3001 32.4663C11.758 32.9551 12.5261 33.01 13.3842 32.5337L28.043 24.2219Z" fill="url(#paint2_linear_107_410)"/>
<path fill-rule="evenodd" clip-rule="evenodd" d="M28.043 15.7781L13.3842 7.47882C12.5261 6.99004 11.7555 7.05737 11.3001 7.54615L23.8073 20L28.043 15.7781Z" fill="url(#paint3_linear_107_410)"/>
<path opacity="0.2" fill-rule="evenodd" clip-rule="evenodd" d="M27.953 24.1322L13.3942 32.3766C12.5811 32.8429 11.8555 32.8105 11.3877 32.3865L11.3101 32.4638L11.3877 32.5312C11.8555 32.9526 12.5811 32.9875 13.3942 32.5212L28.053 24.2219L27.953 24.1322Z" fill="black"/>
<path opacity="0.12" fill-rule="evenodd" clip-rule="evenodd" d="M32.9469 21.2993L27.9405 24.1322L28.0306 24.2219L32.9343 21.4439C33.6374 21.0449 33.9827 20.5212 33.9827 20C33.9401 20.4788 33.5823 20.9327 32.9469 21.2993Z" fill="black"/>
<path opacity="0.25" fill-rule="evenodd" clip-rule="evenodd" d="M13.3842 7.62345L32.9469 18.7008C33.5823 19.0574 33.9401 19.5237 33.9952 20C33.9952 19.4788 33.6499 18.9551 32.9469 18.5561L13.3842 7.47881C11.9807 6.67831 10.8423 7.34664 10.8423 8.94514V9.08978C10.8423 7.48878 11.9807 6.83292 13.3842 7.62345Z" fill="white"/>
</g>
<defs>
<linearGradient id="paint0_linear_107_410" x1="22.7024" y1="8.70657" x2="2.80098" y2="14.0267" gradientUnits="userSpaceOnUse">
<stop stop-color="#00A0FF"/>
<stop offset="0.00657" stop-color="#00A1FF"/>
<stop offset="0.2601" stop-color="#00BEFF"/>
<stop offset="0.5122" stop-color="#00D2FF"/>
<stop offset="0.7604" stop-color="#00DFFF"/>
<stop offset="1" stop-color="#00E3FF"/>
</linearGradient>
<linearGradient id="paint1_linear_107_410" x1="34.7772" y1="20.0001" x2="10.5011" y2="20.0001" gradientUnits="userSpaceOnUse">
<stop stop-color="#FFE000"/>
<stop offset="0.4087" stop-color="#FFBD00"/>
<stop offset="0.7754" stop-color="#FFA500"/>
<stop offset="1" stop-color="#FF9C00"/>
</linearGradient>
<linearGradient id="paint2_linear_107_410" x1="25.7398" y1="22.2973" x2="9.83321" y2="49.1571" gradientUnits="userSpaceOnUse">
<stop stop-color="#FF3A44"/>
<stop offset="1" stop-color="#C31162"/>
</linearGradient>
<linearGradient id="paint3_linear_107_410" x1="8.15067" y1="0.178805" x2="15.2472" y2="12.1748" gradientUnits="userSpaceOnUse">
<stop stop-color="#32A071"/>
<stop offset="0.0685" stop-color="#2DA771"/>
<stop offset="0.4762" stop-color="#15CF74"/>
<stop offset="0.8009" stop-color="#06E775"/>
<stop offset="1" stop-color="#00F076"/>
</linearGradient>
<clipPath id="clip0_107_410">
<rect width="136" height="40" fill="white" transform="translate(0.832031)"/>
</clipPath>
</defs>
</svg>
