<svg width="40" height="40" viewBox="0 0 40 40" fill="none" xmlns="http://www.w3.org/2000/svg">
<path d="M20 0L20.2657 9.40081C20.325 11.4977 23.1613 12.1006 24.0683 10.2091L28.1347 1.72909L24.5538 10.4252C23.7551 12.365 26.101 14.0693 27.6989 12.7103L34.8629 6.61739L28.0545 13.1052C26.5359 14.5524 27.9857 17.0635 29.9983 16.4719L39.0211 13.8197L30.1625 16.9774C28.1866 17.6818 28.4897 20.5655 30.5689 20.8436L39.8904 22.0906L30.5133 21.3722C28.4217 21.212 27.5257 23.9697 29.312 25.0695L37.3205 30L29.0463 25.5297C27.2007 24.5326 25.2605 26.6875 26.445 28.4187L31.7557 36.1803L26.0151 28.7311C24.7346 27.0695 22.0856 28.2489 22.4636 30.3123L24.1582 39.563L21.9438 30.4228C21.4498 28.3841 18.5502 28.3841 18.0562 30.4228L15.8418 39.563L17.5364 30.3123C17.9144 28.2489 15.2654 27.0695 13.9849 28.7311L8.2443 36.1803L13.555 28.4187C14.7395 26.6875 12.7993 24.5326 10.9537 25.5297L2.67949 30L10.688 25.0695C12.4743 23.9697 11.5783 21.212 9.48666 21.3722L0.109562 22.0906L9.4311 20.8436C11.5103 20.5655 11.8134 17.6818 9.83746 16.9774L0.97887 13.8197L10.0017 16.4719C12.0143 17.0635 13.4641 14.5524 11.9455 13.1052L5.1371 6.61739L12.3011 12.7103C13.899 14.0693 16.2449 12.365 15.4462 10.4252L11.8653 1.72909L15.9317 10.2091C16.8387 12.1006 19.675 11.4977 19.7343 9.40082L20 0Z" fill="#0BACDA"/>
<path d="M18.4812 11.8789C19.2629 10.9119 20.7371 10.9119 21.5188 11.8789C22.0045 12.4797 22.7987 12.7377 23.5447 12.5371C24.7455 12.2143 25.9382 13.0809 26.0022 14.3226C26.042 15.0941 26.5328 15.7697 27.2543 16.046C28.4155 16.4906 28.8711 17.8927 28.193 18.9349C27.7717 19.5825 27.7717 20.4175 28.193 21.0651C28.8711 22.1073 28.4155 23.5094 27.2543 23.954C26.5328 24.2303 26.042 24.9059 26.0022 25.6774C25.9382 26.9191 24.7455 27.7857 23.5447 27.4629C22.7987 27.2623 22.0045 27.5203 21.5188 28.1211C20.7371 29.0881 19.2629 29.0881 18.4812 28.1211C17.9955 27.5203 17.2013 27.2623 16.4553 27.4629C15.2545 27.7857 14.0618 26.9191 13.9978 25.6774C13.958 24.9059 13.4672 24.2303 12.7457 23.954C11.5845 23.5094 11.1289 22.1073 11.807 21.0651C12.2283 20.4175 12.2283 19.5825 11.807 18.9349C11.1289 17.8927 11.5845 16.4906 12.7457 16.046C13.4672 15.7697 13.958 15.0941 13.9978 14.3226C14.0618 13.0809 15.2545 12.2143 16.4553 12.5371C17.2013 12.7377 17.9955 12.4797 18.4812 11.8789Z" fill="#03232B"/>
<path d="M18.4812 11.8789C19.2629 10.9119 20.7371 10.9119 21.5188 11.8789C22.0045 12.4797 22.7987 12.7377 23.5447 12.5371C24.7455 12.2143 25.9382 13.0809 26.0022 14.3226C26.042 15.0941 26.5328 15.7697 27.2543 16.046C28.4155 16.4906 28.8711 17.8927 28.193 18.9349C27.7717 19.5825 27.7717 20.4175 28.193 21.0651C28.8711 22.1073 28.4155 23.5094 27.2543 23.954C26.5328 24.2303 26.042 24.9059 26.0022 25.6774C25.9382 26.9191 24.7455 27.7857 23.5447 27.4629C22.7987 27.2623 22.0045 27.5203 21.5188 28.1211C20.7371 29.0881 19.2629 29.0881 18.4812 28.1211C17.9955 27.5203 17.2013 27.2623 16.4553 27.4629C15.2545 27.7857 14.0618 26.9191 13.9978 25.6774C13.958 24.9059 13.4672 24.2303 12.7457 23.954C11.5845 23.5094 11.1289 22.1073 11.807 21.0651C12.2283 20.4175 12.2283 19.5825 11.807 18.9349C11.1289 17.8927 11.5845 16.4906 12.7457 16.046C13.4672 15.7697 13.958 15.0941 13.9978 14.3226C14.0618 13.0809 15.2545 12.2143 16.4553 12.5371C17.2013 12.7377 17.9955 12.4797 18.4812 11.8789Z" fill="url(#paint0_linear_150_37)" style="mix-blend-mode:overlay"/>
<defs>
<linearGradient id="paint0_linear_150_37" x1="10" y1="10" x2="30" y2="30" gradientUnits="userSpaceOnUse">
<stop stop-color="white"/>
<stop offset="1" stop-opacity="0"/>
</linearGradient>
</defs>
</svg>
