<svg width="27" height="41" viewBox="0 0 27 41" fill="none" xmlns="http://www.w3.org/2000/svg">
<path d="M0.792969 22.8477C0.792969 23.1602 0.903646 23.4271 1.125 23.6484C1.34635 23.8568 1.63932 23.9609 2.00391 23.9609H12.4727L6.92578 38.9805C6.70443 39.5664 6.71745 40.0352 6.96484 40.3867C7.21224 40.7513 7.55078 40.9336 7.98047 40.9336C8.42318 40.9466 8.83984 40.7122 9.23047 40.2305L25.9297 19.3125C26.2422 18.9219 26.3984 18.5508 26.3984 18.1992C26.3984 17.8867 26.2878 17.6263 26.0664 17.418C25.8451 17.1966 25.5521 17.0859 25.1875 17.0859H14.7188L20.2656 2.06641C20.487 1.48047 20.474 1.01172 20.2266 0.660156C19.9922 0.295573 19.6536 0.113281 19.2109 0.113281C18.7682 0.10026 18.3581 0.334635 17.9805 0.816406L1.26172 21.7539C0.949219 22.1315 0.792969 22.4961 0.792969 22.8477Z" fill="white"/>
</svg>
