<svg width="25" height="37" viewBox="0 0 25 37" fill="none" xmlns="http://www.w3.org/2000/svg">
<path d="M3.78906 36.1602H21.4062C22.5911 36.1602 23.4766 35.8542 24.0625 35.2422C24.6484 34.6432 24.9414 33.6992 24.9414 32.4102V18.7969C24.9414 17.5078 24.6484 16.5638 24.0625 15.9648C23.4766 15.3529 22.5911 15.0469 21.4062 15.0469L4.12109 15.0664C2.92318 15.0664 1.97917 15.3724 1.28906 15.9844C0.598958 16.5833 0.253906 17.5208 0.253906 18.7969V32.4102C0.253906 33.6992 0.546875 34.6432 1.13281 35.2422C1.73177 35.8542 2.61719 36.1602 3.78906 36.1602ZM3.26172 16.1797H5.95703V10.1445C5.95703 8.58203 6.25651 7.26042 6.85547 6.17969C7.46745 5.08594 8.27474 4.25911 9.27734 3.69922C10.2799 3.1263 11.3867 2.83984 12.5977 2.83984C13.8086 2.83984 14.9154 3.1263 15.918 3.69922C16.9206 4.25911 17.7214 5.08594 18.3203 6.17969C18.9323 7.26042 19.2383 8.58203 19.2383 10.1445V16.1797H21.9141V10.4766C21.9141 8.79688 21.6602 7.31901 21.1523 6.04297C20.6576 4.76693 19.974 3.70573 19.1016 2.85938C18.2292 2 17.2331 1.35547 16.1133 0.925781C14.9935 0.496094 13.8216 0.28125 12.5977 0.28125C11.3737 0.28125 10.2018 0.496094 9.08203 0.925781C7.96224 1.35547 6.96615 2 6.09375 2.85938C5.22135 3.70573 4.53125 4.76693 4.02344 6.04297C3.51562 7.31901 3.26172 8.79688 3.26172 10.4766V16.1797Z" fill="white"/>
</svg>
