<svg width="106" height="40" viewBox="0 0 106 40" fill="none" xmlns="http://www.w3.org/2000/svg">
<path d="M20 0L20.2657 9.40081C20.325 11.4977 23.1613 12.1006 24.0683 10.2091L28.1347 1.72909L24.5538 10.4252C23.7551 12.365 26.101 14.0693 27.6989 12.7103L34.8629 6.61739L28.0545 13.1052C26.5359 14.5524 27.9857 17.0635 29.9983 16.4719L39.0211 13.8197L30.1625 16.9774C28.1866 17.6818 28.4897 20.5655 30.5689 20.8436L39.8904 22.0906L30.5133 21.3722C28.4217 21.212 27.5257 23.9697 29.312 25.0695L37.3205 30L29.0463 25.5297C27.2007 24.5326 25.2605 26.6875 26.445 28.4187L31.7557 36.1803L26.0151 28.7311C24.7346 27.0695 22.0856 28.2489 22.4636 30.3123L24.1582 39.563L21.9438 30.4228C21.4498 28.3841 18.5502 28.3841 18.0562 30.4228L15.8418 39.563L17.5364 30.3123C17.9144 28.2489 15.2654 27.0695 13.9849 28.7311L8.2443 36.1803L13.555 28.4187C14.7395 26.6875 12.7993 24.5326 10.9537 25.5297L2.67949 30L10.688 25.0695C12.4743 23.9697 11.5783 21.212 9.48666 21.3722L0.109562 22.0906L9.4311 20.8436C11.5103 20.5655 11.8134 17.6818 9.83746 16.9774L0.97887 13.8197L10.0017 16.4719C12.0143 17.0635 13.4641 14.5524 11.9455 13.1052L5.1371 6.61739L12.3011 12.7103C13.899 14.0693 16.2449 12.365 15.4462 10.4252L11.8653 1.72909L15.9317 10.2091C16.8387 12.1006 19.675 11.4977 19.7343 9.40082L20 0Z" fill="#0BACDA"/>
<path d="M18.4812 11.8789C19.2629 10.9119 20.7371 10.9119 21.5188 11.8789C22.0045 12.4797 22.7987 12.7377 23.5447 12.5371C24.7455 12.2143 25.9382 13.0809 26.0022 14.3226C26.042 15.0941 26.5328 15.7697 27.2543 16.046C28.4155 16.4906 28.8711 17.8927 28.193 18.9349C27.7717 19.5825 27.7717 20.4175 28.193 21.0651C28.8711 22.1073 28.4155 23.5094 27.2543 23.954C26.5328 24.2303 26.042 24.9059 26.0022 25.6774C25.9382 26.9191 24.7455 27.7857 23.5447 27.4629C22.7987 27.2623 22.0045 27.5203 21.5188 28.1211C20.7371 29.0881 19.2629 29.0881 18.4812 28.1211C17.9955 27.5203 17.2013 27.2623 16.4553 27.4629C15.2545 27.7857 14.0618 26.9191 13.9978 25.6774C13.958 24.9059 13.4672 24.2303 12.7457 23.954C11.5845 23.5094 11.1289 22.1073 11.807 21.0651C12.2283 20.4175 12.2283 19.5825 11.807 18.9349C11.1289 17.8927 11.5845 16.4906 12.7457 16.046C13.4672 15.7697 13.958 15.0941 13.9978 14.3226C14.0618 13.0809 15.2545 12.2143 16.4553 12.5371C17.2013 12.7377 17.9955 12.4797 18.4812 11.8789Z" fill="#03232B"/>
<path d="M18.4812 11.8789C19.2629 10.9119 20.7371 10.9119 21.5188 11.8789C22.0045 12.4797 22.7987 12.7377 23.5447 12.5371C24.7455 12.2143 25.9382 13.0809 26.0022 14.3226C26.042 15.0941 26.5328 15.7697 27.2543 16.046C28.4155 16.4906 28.8711 17.8927 28.193 18.9349C27.7717 19.5825 27.7717 20.4175 28.193 21.0651C28.8711 22.1073 28.4155 23.5094 27.2543 23.954C26.5328 24.2303 26.042 24.9059 26.0022 25.6774C25.9382 26.9191 24.7455 27.7857 23.5447 27.4629C22.7987 27.2623 22.0045 27.5203 21.5188 28.1211C20.7371 29.0881 19.2629 29.0881 18.4812 28.1211C17.9955 27.5203 17.2013 27.2623 16.4553 27.4629C15.2545 27.7857 14.0618 26.9191 13.9978 25.6774C13.958 24.9059 13.4672 24.2303 12.7457 23.954C11.5845 23.5094 11.1289 22.1073 11.807 21.0651C12.2283 20.4175 12.2283 19.5825 11.807 18.9349C11.1289 17.8927 11.5845 16.4906 12.7457 16.046C13.4672 15.7697 13.958 15.0941 13.9978 14.3226C14.0618 13.0809 15.2545 12.2143 16.4553 12.5371C17.2013 12.7377 17.9955 12.4797 18.4812 11.8789Z" fill="url(#paint0_linear_199_36)" style="mix-blend-mode:overlay"/>
<path d="M45.1378 27V13.9091H53.9588V16.1911H47.9055V19.3104H53.505V21.5923H47.9055V24.718H53.9844V27H45.1378Z" fill="white"/>
<path d="M60.1842 27.1918C59.1785 27.1918 58.3135 26.9787 57.589 26.5526C56.8689 26.1222 56.3149 25.5256 55.9271 24.7628C55.5436 24 55.3518 23.1222 55.3518 22.1293C55.3518 21.1236 55.5457 20.2415 55.9335 19.483C56.3256 18.7202 56.8817 18.1257 57.6018 17.6996C58.322 17.2692 59.1785 17.054 60.1714 17.054C61.028 17.054 61.778 17.2095 62.4214 17.5206C63.0649 17.8317 63.5741 18.2685 63.9491 18.831C64.3241 19.3935 64.5308 20.054 64.5692 20.8125H61.9996C61.9271 20.3224 61.7353 19.9283 61.4243 19.63C61.1175 19.3274 60.7148 19.1761 60.2162 19.1761C59.7943 19.1761 59.4257 19.2912 59.1104 19.5213C58.7993 19.7472 58.5564 20.0774 58.3817 20.5121C58.2069 20.9467 58.1196 21.473 58.1196 22.0909C58.1196 22.7173 58.2048 23.25 58.3753 23.6889C58.55 24.1278 58.795 24.4624 59.1104 24.6925C59.4257 24.9226 59.7943 25.0376 60.2162 25.0376C60.5273 25.0376 60.8064 24.9737 61.0535 24.8459C61.305 24.718 61.5116 24.5327 61.6736 24.2898C61.8398 24.0426 61.9484 23.7464 61.9996 23.4013H64.5692C64.5265 24.1513 64.322 24.8118 63.9555 25.3828C63.5933 25.9496 63.0926 26.3928 62.4534 26.7124C61.8142 27.032 61.0578 27.1918 60.1842 27.1918Z" fill="white"/>
<path d="M68.6756 13.9091V27H65.9526V13.9091H68.6756Z" fill="white"/>
<path d="M70.4969 27V17.1818H73.2199V27H70.4969ZM71.8648 15.9162C71.46 15.9162 71.1126 15.782 70.8229 15.5135C70.5374 15.2408 70.3946 14.9148 70.3946 14.5355C70.3946 14.1605 70.5374 13.8388 70.8229 13.5703C71.1126 13.2976 71.46 13.1612 71.8648 13.1612C72.2696 13.1612 72.6148 13.2976 72.9003 13.5703C73.1901 13.8388 73.335 14.1605 73.335 14.5355C73.335 14.9148 73.1901 15.2408 72.9003 15.5135C72.6148 15.782 72.2696 15.9162 71.8648 15.9162Z" fill="white"/>
<path d="M75.0412 30.6818V17.1818H77.7258V18.831H77.8473C77.9666 18.5668 78.1392 18.2983 78.365 18.0256C78.5952 17.7486 78.8935 17.5185 79.2599 17.3352C79.6307 17.1477 80.0909 17.054 80.6406 17.054C81.3565 17.054 82.017 17.2415 82.6221 17.6165C83.2273 17.9872 83.7109 18.5476 84.0731 19.2976C84.4354 20.0433 84.6165 20.9787 84.6165 22.1037C84.6165 23.1989 84.4396 24.1236 84.0859 24.8778C83.7365 25.6278 83.2592 26.1967 82.6541 26.5845C82.0533 26.968 81.38 27.1598 80.6342 27.1598C80.1058 27.1598 79.6562 27.0724 79.2855 26.8977C78.919 26.723 78.6186 26.5036 78.3842 26.2393C78.1498 25.9709 77.9709 25.7003 77.8473 25.4276H77.7642V30.6818H75.0412ZM77.7067 22.0909C77.7067 22.6747 77.7876 23.1839 77.9496 23.6186C78.1115 24.0533 78.3459 24.392 78.6527 24.6349C78.9595 24.8736 79.3324 24.9929 79.7713 24.9929C80.2145 24.9929 80.5895 24.8714 80.8963 24.6286C81.2031 24.3814 81.4354 24.0405 81.593 23.6058C81.755 23.1669 81.8359 22.6619 81.8359 22.0909C81.8359 21.5241 81.7571 21.0256 81.5994 20.5952C81.4418 20.1648 81.2095 19.8281 80.9027 19.5852C80.5959 19.3423 80.2187 19.2209 79.7713 19.2209C79.3281 19.2209 78.9531 19.3381 78.6463 19.5724C78.3437 19.8068 78.1115 20.1392 77.9496 20.5696C77.7876 21 77.7067 21.5071 77.7067 22.0909Z" fill="white"/>
<path d="M94.2408 19.9815L91.7479 20.1349C91.7053 19.9219 91.6137 19.7301 91.4731 19.5597C91.3325 19.3849 91.1471 19.2464 90.917 19.1442C90.6911 19.0376 90.4205 18.9844 90.1052 18.9844C89.6833 18.9844 89.3275 19.0739 89.0377 19.2528C88.7479 19.4276 88.6031 19.6619 88.6031 19.956C88.6031 20.1903 88.6968 20.3885 88.8843 20.5504C89.0718 20.7124 89.3935 20.8423 89.8495 20.9403L91.6265 21.2983C92.581 21.4943 93.2927 21.8097 93.7614 22.2443C94.2302 22.679 94.4646 23.25 94.4646 23.9574C94.4646 24.6009 94.2749 25.1655 93.8957 25.6513C93.5207 26.1371 93.005 26.5163 92.3488 26.7891C91.6968 27.0575 90.9447 27.1918 90.0924 27.1918C88.7927 27.1918 87.7572 26.9212 86.9859 26.38C86.2188 25.8345 85.7693 25.093 85.6371 24.1555L88.3154 24.0149C88.3964 24.4112 88.5924 24.7138 88.9035 24.9226C89.2146 25.1271 89.613 25.2294 90.0988 25.2294C90.5761 25.2294 90.9596 25.1378 91.2494 24.9545C91.5434 24.767 91.6925 24.5263 91.6968 24.2322C91.6925 23.9851 91.5881 23.7827 91.3836 23.625C91.1791 23.4631 90.8637 23.3395 90.4376 23.2543L88.7373 22.9155C87.7785 22.7237 87.0647 22.3913 86.596 21.9183C86.1315 21.4453 85.8992 20.8423 85.8992 20.1094C85.8992 19.4787 86.0697 18.9354 86.4106 18.4794C86.7558 18.0234 87.2394 17.6719 87.8616 17.4247C88.488 17.1776 89.221 17.054 90.0604 17.054C91.3005 17.054 92.2764 17.3161 92.988 17.8402C93.7039 18.3643 94.1215 19.0781 94.2408 19.9815Z" fill="white"/>
<path d="M100.294 27.1918C99.2837 27.1918 98.4144 26.9872 97.6857 26.5781C96.9613 26.1648 96.403 25.581 96.011 24.8267C95.6189 24.0682 95.4229 23.1712 95.4229 22.1357C95.4229 21.1257 95.6189 20.2393 96.011 19.4766C96.403 18.7138 96.9549 18.1193 97.6665 17.6932C98.3824 17.267 99.2219 17.054 100.185 17.054C100.833 17.054 101.436 17.1584 101.994 17.3672C102.556 17.5717 103.047 17.8807 103.464 18.294C103.886 18.7074 104.214 19.2273 104.448 19.8537C104.683 20.4759 104.8 21.2045 104.8 22.0398V22.7876H96.5096V21.1001H102.237C102.237 20.7081 102.152 20.3608 101.981 20.0582C101.811 19.7557 101.574 19.5192 101.272 19.3487C100.973 19.174 100.626 19.0866 100.23 19.0866C99.8164 19.0866 99.4499 19.1825 99.1303 19.3743C98.815 19.5618 98.5678 19.8153 98.3888 20.1349C98.2099 20.4503 98.1182 20.8018 98.114 21.1896V22.794C98.114 23.2798 98.2035 23.6996 98.3824 24.0533C98.5657 24.407 98.8235 24.6797 99.1559 24.8714C99.4883 25.0632 99.8824 25.1591 100.338 25.1591C100.641 25.1591 100.918 25.1165 101.169 25.0312C101.421 24.946 101.636 24.8182 101.815 24.6477C101.994 24.4773 102.13 24.2685 102.224 24.0213L104.743 24.1875C104.615 24.7926 104.353 25.321 103.956 25.7727C103.564 26.2202 103.057 26.5696 102.435 26.821C101.817 27.0682 101.103 27.1918 100.294 27.1918Z" fill="white"/>
<defs>
<linearGradient id="paint0_linear_199_36" x1="10" y1="10" x2="30" y2="30" gradientUnits="userSpaceOnUse">
<stop stop-color="white"/>
<stop offset="1" stop-opacity="0"/>
</linearGradient>
</defs>
</svg>
