<svg width="18" height="20" viewBox="0 0 18 20" fill="none" xmlns="http://www.w3.org/2000/svg">
<path d="M17.7501 8.19961C16.0303 8.20372 14.3528 7.6674 12.9544 6.66641V13.6477C12.9539 14.9407 12.5587 16.2027 11.8216 17.265C11.0845 18.3274 10.0406 19.1393 8.82958 19.5924C7.61855 20.0455 6.29806 20.118 5.04469 19.8003C3.79132 19.4826 2.66481 18.7899 1.81578 17.8147C0.966758 16.8395 0.435691 15.6283 0.293593 14.3431C0.151494 13.058 0.405138 11.76 1.02061 10.6229C1.63608 9.48579 2.58404 8.56366 3.73773 7.97983C4.89142 7.39601 6.19586 7.17832 7.47662 7.35586V10.8672C6.89054 10.6828 6.2612 10.6884 5.67847 10.8831C5.09574 11.0777 4.58941 11.4515 4.23181 11.9511C3.8742 12.4507 3.6836 13.0505 3.68721 13.6649C3.69083 14.2793 3.88849 14.8768 4.25196 15.3721C4.61542 15.8675 5.12611 16.2353 5.7111 16.4231C6.29608 16.6109 6.92545 16.609 7.50931 16.4178C8.09317 16.2265 8.60168 15.8557 8.96221 15.3582C9.32275 14.8607 9.51686 14.262 9.51685 13.6477V0H12.9544C12.952 0.290289 12.9763 0.580182 13.027 0.866016C13.1465 1.50409 13.3948 2.1111 13.7569 2.6499C14.119 3.1887 14.5872 3.64796 15.1329 3.99961C15.9092 4.51293 16.8194 4.78652 17.7501 4.78633V8.19961Z" fill="white"/>
</svg>
